HIERARCHY
ROOT Hips
{
 OFFSET 0.000000 0.000000 0.000000
 CHANNELS 6 Xposition Yposition Zposition Yrotation Xrotation Zrotation
 JOINT Chest
 {
  OFFSET 0.000000 13.173100 -0.061900
  CHANNELS 3 Yrotation Xrotation Zrotation
  JOINT Chest2
  {
   OFFSET 0.000000 8.040800 0.126200
   CHANNELS 3 Yrotation Xrotation Zrotation
   JOINT Chest3
   {
    OFFSET 0.000000 7.994400 0.000000
    CHANNELS 3 Yrotation Xrotation Zrotation
    JOINT Chest4
    {
     OFFSET 0.000000 7.986200 0.000000
     CHANNELS 3 Yrotation Xrotation Zrotation
     JOINT Neck
     {
      OFFSET 0.000000 12.259400 0.000000
      CHANNELS 3 Yrotation Xrotation Zrotation
      JOINT Head
      {
       OFFSET 0.000000 7.518700 0.267100
       CHANNELS 3 Yrotation Xrotation Zrotation
       End Site
       {
        OFFSET 0.000000 13.617700 0.141000
       }
      }
     }
     JOINT RightCollar
     {
      OFFSET -2.983800 8.314300 0.000000
      CHANNELS 3 Yrotation Xrotation Zrotation
      JOINT RightShoulder
      {
       OFFSET -16.133400 0.000000 0.000000
       CHANNELS 3 Yrotation Xrotation Zrotation
       JOINT RightElbow
       {
        OFFSET 0.000000 -29.822100 0.000000
        CHANNELS 3 Yrotation Xrotation Zrotation
        JOINT RightWrist
        {
         OFFSET 0.000000 -24.437700 0.010900
         CHANNELS 3 Yrotation Xrotation Zrotation
         End Site
         {
          OFFSET 0.000000 -18.312300 0.000000
         }
        }
       }
      }
     }
     JOINT LeftCollar
     {
      OFFSET 2.983800 8.314300 0.000000
      CHANNELS 3 Yrotation Xrotation Zrotation
      JOINT LeftShoulder
      {
       OFFSET 16.133400 0.000000 0.000000
       CHANNELS 3 Yrotation Xrotation Zrotation
       JOINT LeftElbow
       {
        OFFSET 0.000000 -29.822100 0.000000
        CHANNELS 3 Yrotation Xrotation Zrotation
        JOINT LeftWrist
        {
         OFFSET 0.000000 -24.437700 0.010900
         CHANNELS 3 Yrotation Xrotation Zrotation
         End Site
         {
          OFFSET 0.000000 -18.312300 0.000000
         }
        }
       }
      }
     }
    }
   }
  }
 }
 JOINT RightHip
 {
  OFFSET -11.206700 0.306200 0.030900
  CHANNELS 3 Yrotation Xrotation Zrotation
  JOINT RightKnee
  {
   OFFSET 0.000000 -57.334900 0.009400
   CHANNELS 3 Yrotation Xrotation Zrotation
   JOINT RightAnkle
   {
    OFFSET 0.000000 -43.376200 0.036600
    CHANNELS 3 Yrotation Xrotation Zrotation
    JOINT RightToe
    {
     OFFSET 0.000000 -10.035500 18.363100
     CHANNELS 3 Yrotation Xrotation Zrotation
     End Site
     {
      OFFSET 0.000000 -1.618500 7.239000
     }
    }
   }
  }
 }
 JOINT LeftHip
 {
  OFFSET 11.206700 0.306200 0.030900
  CHANNELS 3 Yrotation Xrotation Zrotation
  JOINT LeftKnee
  {
   OFFSET 0.000000 -57.334900 0.009400
   CHANNELS 3 Yrotation Xrotation Zrotation
   JOINT LeftAnkle
   {
    OFFSET 0.000000 -43.376200 0.036600
    CHANNELS 3 Yrotation Xrotation Zrotation
    JOINT LeftToe
    {
     OFFSET 0.000000 -10.035500 18.363100
     CHANNELS 3 Yrotation Xrotation Zrotation
     End Site
     {
      OFFSET 0.000000 -1.618500 7.239000
     }
    }
   }
  }
 }
}
MOTION
Frames: 15
Frame Time: 0.008333
0.000000 110.232800 0.000000 0.000000 -5.767877 0.000000 0.000000 11.653817 0.000000 0.000000 -5.885947 0.000000 0.000000 -0.000000 0.000000 0.000000 -0.000000 0.000000 0.000000 12.528835 0.000000 0.000000 0.711642 0.000000 0.000000 -0.000000 0.000000 0.000000 0.000000 -90.000000 0.000000 -2.309062 0.000000 0.000000 2.309062 0.000000 0.000000 -0.000000 0.000000 0.000000 -0.000000 90.000000 0.000000 -2.309062 0.000000 0.000000 2.309062 0.000000 0.000000 8.520406 0.000000 0.000000 1.905762 0.000000 -0.000000 -4.658285 0.000000 0.000000 -0.000000 0.000000 0.000000 8.520406 0.000000 0.000000 1.905762 0.000000 -0.000000 -4.658285 0.000000 0.000000 -0.000000 0.000000
-97.287225 64.528649 87.267268 173.500316 -36.477113 -3.215802 2.263246 22.774761 2.968502 0.276709 3.338667 0.521831 0.461046 5.429089 0.856355 2.088349 19.168932 3.337476 -0.337959 12.739582 -0.240837 -0.535023 -12.233928 -0.353888 -2.563602 1.835742 -2.912395 -4.266175 -4.219782 2.897332 139.893752 -79.575801 -131.313296 4.096052 -3.566706 -4.455721 -6.054358 -1.129355 -1.408263 2.645898 -21.370612 6.734167 177.825897 -54.863566 164.019646 -8.830745 -27.511234 25.995978 -5.783424 -44.174678 5.356691 -115.089808 89.092912 -110.292498 -1.461301 -8.883012 -4.112521 0.048145 -0.210671 0.017646 -3.166674 -41.190659 5.367914 76.278067 83.330039 65.972560 -6.097487 -14.282488 8.128812 0.407153 1.225275 0.237864
-97.288851 64.528628 87.264099 173.502065 -36.477930 -3.229917 2.267876 22.798045 2.979463 0.275422 3.364341 0.525930 0.459869 5.414020 0.860248 2.089829 19.190539 3.348238 -0.210211 12.731891 -0.192567 -0.306650 -12.229585 -0.318289 -2.546602 1.844723 -2.895386 -4.281691 -4.216710 2.901770 140.083394 -79.563060 -131.488208 4.029548 -3.650427 -4.495371 -6.050767 -1.151462 -1.400662 2.615930 -21.268259 6.741990 177.870440 -55.034443 163.978075 -8.769422 -27.496261 25.830543 -5.789077 -44.171023 5.363947 -115.228162 89.098720 -110.419705 -1.460609 -8.884119 -4.115865 0.048711 -0.211868 0.016332 -3.164154 -41.190917 5.376815 76.299393 83.338142 65.998412 -6.088267 -14.282828 8.135008 0.401117 1.220856 0.235811
-97.292423 64.528469 87.260240 173.504984 -36.478762 -3.239323 2.268973 22.818978 2.987443 0.275906 3.350429 0.526699 0.455648 5.430128 0.864048 2.084521 19.249721 3.379926 -0.061420 12.698919 -0.158824 -0.051518 -12.212829 -0.276651 -2.519096 1.819912 -2.904550 -4.297413 -4.192879 2.920428 140.227909 -79.494086 -131.628347 3.948507 -3.696976 -4.515173 -6.038999 -1.204526 -1.413223 2.608036 -21.231927 6.733672 177.856927 -55.290474 163.952852 -8.704995 -27.453954 25.648484 -5.792100 -44.168347 5.365993 -115.527043 89.101331 -110.712637 -1.462325 -8.887926 -4.114423 0.049857 -0.212324 0.016299 -3.155192 -41.192059 5.377137 76.336459 83.340016 66.041858 -6.092720 -14.276432 8.141267 0.399760 1.212278 0.235227
-97.282785 64.533593 87.251714 173.471078 -36.515640 -3.284219 2.318742 22.867363 3.054673 0.275943 3.355754 0.529505 0.461510 5.416599 0.863948 2.088323 19.277169 3.400181 0.094301 12.712276 -0.099154 0.219881 -12.187749 -0.227051 -2.511365 1.811236 -2.912067 -4.302898 -4.173775 2.936686 140.390894 -79.522842 -131.768438 3.933134 -3.764810 -4.555693 -6.043524 -1.189257 -1.396129 2.598866 -21.135264 6.725246 177.805248 -55.486314 163.975967 -8.636630 -27.386244 25.457431 -5.815746 -44.115697 5.450727 -114.572605 89.112320 -109.749614 -1.464468 -8.881772 -4.117775 0.048459 -0.213173 0.017737 -3.163522 -41.156082 5.453579 76.441265 83.350184 66.151605 -6.056263 -14.266180 8.158070 0.369719 1.186684 0.215408
-97.284894 64.533921 87.247305 173.472503 -36.518779 -3.303577 2.327997 22.898224 3.080887 0.274450 3.346597 0.527981 0.461602 5.423742 0.867785 2.091055 19.273877 3.409225 0.257373 12.732412 -0.029790 0.500232 -12.159522 -0.170389 -2.492970 1.835922 -2.897752 -4.324421 -4.208197 2.920453 140.528167 -79.629388 -131.890600 3.967311 -3.853309 -4.589659 -6.055659 -1.176759 -1.381994 2.598759 -21.040635 6.725827 177.689298 -55.715925 164.040396 -8.561130 -27.293427 25.260276 -5.831701 -44.108249 5.471702 -114.637852 89.116279 -109.810964 -1.466033 -8.881250 -4.121213 0.049292 -0.215502 0.020848 -3.150222 -41.154324 5.459801 76.468086 83.359434 66.191836 -6.046581 -14.267666 8.169342 0.368257 1.184030 0.210462
-97.289298 64.533388 87.243947 173.474953 -36.514390 -3.315957 2.330975 22.899767 3.094338 0.276573 3.358260 0.533620 0.460525 5.443514 0.877816 2.085455 19.243757 3.396262 0.427456 12.758863 0.051364 0.788552 -12.135012 -0.107754 -2.477868 1.865782 -2.868814 -4.324053 -4.195408 2.931530 140.512874 -79.634635 -131.875781 3.968620 -3.912312 -4.625366 -6.071588 -1.135211 -1.348177 2.614331 -20.997620 6.709830 177.507909 -56.002365 164.142690 -8.481849 -27.183360 25.061240 -5.842736 -44.110608 5.481736 -114.810707 89.119986 -109.980635 -1.466062 -8.881777 -4.121675 0.050135 -0.217016 0.022513 -3.155283 -41.159259 5.469531 76.492476 83.365608 66.214495 -6.041933 -14.264513 8.179731 0.360564 1.187609 0.203938
-97.294125 64.533455 87.240282 173.474896 -36.511861 -3.326525 2.335075 22.901952 3.106417 0.276094 3.365776 0.536553 0.457795 5.444710 0.876761 2.091017 19.250488 3.411793 0.594309 12.760748 0.118574 1.084003 -12.122934 -0.039728 -2.474513 1.869655 -2.853669 -4.271007 -4.158956 2.990037 140.273212 -79.549232 -131.684781 3.954282 -3.932221 -4.653562 -6.073266 -1.140058 -1.354974 2.603633 -20.937410 6.726910 177.267600 -56.318199 164.286544 -8.402082 -27.066032 24.865538 -5.847099 -44.110900 5.488028 -114.768704 89.112771 -109.934162 -1.458320 -8.884067 -4.115967 0.049509 -0.217046 0.019670 -3.158252 -41.162132 5.478824 76.527972 83.369015 66.247977 -6.040901 -14.261164 8.188649 0.361285 1.184945 0.201094
-97.298286 64.533703 87.237464 173.469707 -36.506199 -3.338930 2.340830 22.905192 3.118206 0.276539 3.366876 0.538114 0.458885 5.444481 0.878919 2.093821 19.253512 3.420754 0.763675 12.759422 0.195834 1.384493 -12.131260 0.031495 -2.472049 1.868717 -2.847201 -4.238091 -4.151086 3.016084 140.095185 -79.524344 -131.532891 3.953599 -3.945246 -4.690845 -6.070727 -1.147065 -1.361708 2.585517 -20.882695 6.750355 176.975918 -56.665316 164.469217 -8.322581 -26.942440 24.675455 -5.856773 -44.113109 5.505124 -114.682602 89.112783 -109.846264 -1.457888 -8.883905 -4.112445 0.047620 -0.217037 0.018854 -3.139570 -41.169151 5.477792 76.563365 83.367720 66.299239 -6.034936 -14.261923 8.195917 0.355408 1.181754 0.197668
-97.303398 64.534285 87.234926 173.470168 -36.498698 -3.352208 2.341028 22.908122 3.127469 0.264630 3.381637 0.537599 0.474691 5.422822 0.881408 2.076484 19.287184 3.442227 0.943880 12.724847 0.259310 1.686897 -12.162407 0.106216 -2.451910 1.845717 -2.857405 -4.207988 -4.151871 3.040795 139.802876 -79.516246 -131.269512 3.953828 -3.976193 -4.732629 -6.048270 -1.181284 -1.384140 2.562613 -20.837193 6.773532 176.648230 -57.036410 164.684591 -8.245592 -26.806692 24.491519 -5.871801 -44.116748 5.520455 -114.517171 89.118658 -109.681141 -1.453719 -8.884269 -4.108869 0.047977 -0.217313 0.016785 -3.139438 -41.177026 5.485025 76.592267 83.366549 66.334738 -6.036894 -14.260754 8.194445 0.357270 1.179462 0.202059
-97.306639 64.534619 87.234127 173.467686 -36.484169 -3.373958 2.330470 22.915974 3.136868 0.275777 3.371851 0.542463 0.471979 5.426169 0.884197 2.078191 19.288818 3.447618 1.117378 12.696893 0.341200 1.983225 -12.213881 0.190308 -2.442874 1.869407 -2.817895 -4.178723 -4.187716 3.029329 139.326968 -79.541364 -130.795321 3.957712 -4.051722 -4.785953 -6.028171 -1.188787 -1.391839 2.534865 -20.805837 6.791582 176.308645 -57.422884 164.915926 -8.168808 -26.656152 24.309866 -5.897837 -44.123068 5.551461 -113.625529 89.096863 -108.786906 -1.432121 -8.886398 -4.112068 0.049400 -0.212640 0.016101 -3.148387 -41.191535 5.507714 76.630232 83.365528 66.379558 -6.038556 -14.265427 8.193556 0.356326 1.185075 0.203360
-97.312120 64.536476 87.231571 173.460910 -36.478097 -3.383516 2.334394 22.917587 3.146380 0.276260 3.372685 0.543501 0.462432 5.442449 0.886515 2.089825 19.271224 3.447016 1.287408 12.664030 0.432486 2.266987 -12.281887 0.287609 -2.439465 1.885544 -2.790163 -4.154213 -4.208319 3.030221 139.102655 -79.552017 -130.582778 3.946210 -4.078787 -4.852473 -5.991503 -1.202095 -1.397868 2.486102 -20.766336 6.808304 175.976543 -57.823653 165.146022 -8.086198 -26.490694 24.124436 -5.907559 -44.123636 5.568899 -113.282534 89.096228 -108.444393 -1.433368 -8.888927 -4.111292 0.048576 -0.210378 0.018002 -3.148351 -41.197091 5.519258 76.675108 83.363742 66.423417 -6.038792 -14.264356 8.200077 0.357594 1.186890 0.200514
-97.317094 64.538884 87.228963 173.451562 -36.473374 -3.394209 2.345811 22.914969 3.162030 0.274297 3.375034 0.543472 0.465543 5.440834 0.887623 2.091078 19.272394 3.448629 1.455026 12.620670 0.529125 2.541486 -12.362936 0.394915 -2.433659 1.889446 -2.772824 -4.138570 -4.213325 3.040012 138.965111 -79.571602 -130.450326 3.928027 -4.107155 -4.916429 -5.969713 -1.228484 -1.404053 2.456519 -20.730079 6.818708 175.649145 -58.250324 165.372632 -8.003520 -26.303456 23.933509 -5.917575 -44.122353 5.589069 -112.928990 89.099163 -108.091267 -1.434521 -8.889150 -4.109173 0.045577 -0.210346 0.019708 -3.153340 -41.200595 5.537767 76.742056 83.358621 66.488337 -6.047706 -14.265114 8.203222 0.359623 1.182973 0.201373
-97.323619 64.541199 87.226493 173.446333 -36.466924 -3.400679 2.351229 22.910725 3.171445 0.272033 3.374525 0.541335 0.469310 5.441863 0.890921 2.097486 19.275406 3.457010 1.612703 12.564655 0.622604 2.811431 -12.452922 0.509569 -2.432359 1.885193 -2.767739 -4.126819 -4.211450 3.057860 138.887482 -79.595379 -130.369694 3.911320 -4.132762 -4.969312 -5.947655 -1.267583 -1.418123 2.419055 -20.684258 6.830918 175.336486 -58.687160 165.603686 -7.926680 -26.086229 23.723210 -5.923929 -44.123490 5.599147 -112.732636 89.103552 -107.896492 -1.435561 -8.892462 -4.106160 0.048215 -0.208122 0.019723 -3.149981 -41.206662 5.542168 76.763998 83.358937 66.511195 -6.048318 -14.262482 8.213968 0.354297 1.180161 0.195750
-97.328187 64.543563 87.224517 173.442396 -36.459712 -3.415926 2.354673 22.905857 3.183051 0.276368 3.371789 0.544543 0.466353 5.443003 0.890479 2.102969 19.263115 3.467481 1.772767 12.517298 0.716993 3.076707 -12.546669 0.632309 -2.430260 1.895885 -2.773354 -4.113263 -4.206803 3.087368 138.849512 -79.621327 -130.322096 3.884395 -4.156344 -5.016663 -5.917777 -1.300519 -1.435849 2.364262 -20.610475 6.840384 175.095194 -59.118432 165.804115 -7.847971 -25.831980 23.467073 -5.939016 -44.123713 5.620538 -112.333118 89.110534 -107.496863 -1.433115 -8.892269 -4.104816 0.048710 -0.207893 0.019630 -3.152134 -41.215055 5.553168 76.807721 83.358105 66.558732 -6.035075 -14.261430 8.219977 0.352570 1.176204 0.192777
